<svg width="493" height="90" viewBox="0 0 493 90" fill="none" xmlns="http://www.w3.org/2000/svg">
<g clip-path="url(#clip0_641:1277)">
<path d="M75 0H67L51.16 40.43H40.67L24.88 0H16.88L0 43.17V46.3L16.86 89.47H24.86L40.67 49H51.16L66.94 89.47H74.94L91.82 46.3V43.17L75 0ZM20.87 76.08L8.63 44.74L20.87 13.41L33.1 44.74L20.87 76.08ZM70.95 76.08L58.72 44.74L71 13.41L83.19 44.74L70.95 76.08Z" fill="white"/>
<path d="M178.59 19.2299V71.2299H168.87V48.7899H141.58V71.1899H131.86V19.1899H141.58V40.6499H168.87V19.2299H178.59Z" fill="white"/>
<path d="M232.15 60.8599H208.65L204.51 71.1899H194.1L215.89 19.1899H224.89L246.67 71.1899H236.29L232.15 60.8599ZM228.91 52.6499L220.44 31.5199L212 52.6499H228.91Z" fill="white"/>
<path d="M302.19 56.0899C302.19 65.1499 295.19 71.1899 284.41 71.1899H262.28V19.1899H284.13C293.3 19.1899 299.43 24.6699 299.43 32.8099C299.43 37.5199 296.95 41.2399 292.61 43.6199C298.54 45.6999 302.19 50.1899 302.19 56.0899ZM272 40.4299H281.79C286.4 40.4299 289.44 37.8399 289.44 33.9099C289.44 29.9799 286.33 27.4499 281.85 27.4499H272V40.4299ZM292.19 55.8099C292.19 51.4599 288.82 48.5799 283.92 48.5799H272V62.9999H283.78C288.82 62.9999 292.19 60.0899 292.19 55.8099Z" fill="white"/>
<path d="M320.73 19.23H330.45V71.23H320.73V19.23Z" fill="white"/>
<path d="M388 27.45H372.43V71.19H362.71V27.45H347.2V19.23H388V27.45Z" fill="white"/>
<path d="M431.44 60.8599H407.93L403.8 71.1899H393.39L415.17 19.1899H424.17L445.95 71.1899H435.57L431.44 60.8599ZM428.2 52.6499L419.72 31.5199L411.24 52.6499H428.2Z" fill="white"/>
<path d="M492.24 27.45H476.66V71.19H466.94V27.45H451.43V19.23H492.24V27.45Z" fill="white"/>
</g>
<defs>
<clipPath id="clip0_641:1277">
<rect width="492.24" height="89.47" fill="white"/>
</clipPath>
</defs>
</svg>
