<svg width="247" height="44" viewBox="0 0 247 44" fill="none" xmlns="http://www.w3.org/2000/svg">
<path d="M37.6341 0H33.6198L25.6715 19.8829H20.4077L12.4845 0H8.47018L0 21.2304V22.7696L8.46014 44H12.4744L20.4077 24.0975H25.6715L33.5897 44H37.604L46.0742 22.7696V21.2304L37.6341 0ZM10.4723 37.415L4.33043 22.0025L10.4723 6.59484L16.6092 22.0025L10.4723 37.415ZM35.6018 37.415L29.465 22.0025L35.6269 6.59484L41.7437 22.0025L35.6018 37.415Z" fill="black"/>
<path d="M89.6142 9.45717V35.03H84.7368V23.9943H71.043V35.0103H66.1656V9.4375H71.043V19.9912H84.7368V9.45717H89.6142Z" fill="black"/>
<path d="M116.49 29.9302H104.698L102.621 35.0103H97.397L108.331 9.4375H112.847L123.776 35.0103H118.567L116.49 29.9302ZM114.864 25.8926L110.614 15.5012L106.379 25.8926H114.864Z" fill="black"/>
<path d="M151.635 27.5844C151.635 32.0399 148.123 35.0103 142.713 35.0103H131.609V9.4375H142.573C147.174 9.4375 150.25 12.1325 150.25 16.1356C150.25 18.4519 149.006 20.2814 146.828 21.4518C149.804 22.4747 151.635 24.6828 151.635 27.5844ZM136.486 19.883H141.399C143.712 19.883 145.237 18.6093 145.237 16.6766C145.237 14.7439 143.677 13.4996 141.429 13.4996H136.486V19.883ZM146.617 27.4467C146.617 25.3074 144.926 23.8911 142.468 23.8911H136.486V30.9826H142.397C144.926 30.9826 146.617 29.5515 146.617 27.4467Z" fill="black"/>
<path d="M160.938 9.45703H165.816V35.0298H160.938V9.45703Z" fill="black"/>
<path d="M194.694 13.4995H186.881V35.0102H182.003V13.4995H174.221V9.45703H194.694V13.4995Z" fill="black"/>
<path d="M216.491 29.9302H204.694L202.622 35.0103H197.398L208.327 9.4375H212.843L223.772 35.0103H218.564L216.491 29.9302ZM214.865 25.8926L210.61 15.5012L206.355 25.8926H214.865Z" fill="black"/>
<path d="M247 13.4995H239.182V35.0102H234.305V13.4995H226.522V9.45703H247V13.4995Z" fill="black"/>
</svg>
