<svg xmlns="http://www.w3.org/2000/svg" width="70" height="62" viewBox="0 0 70 62"><path d="M48.07923.06979h-3.6111l-7.1065,18.20062H32.638L25.53151.06943H21.92005L14.33188,19.50258v1.41156l7.58817,19.43351h3.61146L32.638,22.147h4.72362l7.10813,18.20062h3.61109l7.58853-19.43351V19.504Zm-24.354,34.24676-5.50783-14.105L23.72524,6.10585l5.50782,14.10571Zm22.54826,0-5.5071-14.105L46.2735,6.10585l5.50909,14.10571Z" fill="#010101"/><path d="M9.24391,51.9023V61.92868H7.36809V57.60654H2.09975v4.32214H.225V51.9023H2.10083v4.13321h5.268V51.9023Z" fill="#010101"/><path d="M19.58041,59.937H15.04293l-.79718,1.99277h-2.009l4.20376-10.02638h1.7423l4.20447,10.02638H20.379Zm-.6251-1.58688-1.63743-4.079-1.636,4.079Z" fill="#010101"/><path d="M33.09625,59.01521c0,1.74815-1.35651,2.91536-3.432,2.91536h-4.271V51.90419h4.21691a2.65158,2.65158,0,0,1,2.9523,2.62832,2.3196,2.3196,0,0,1-1.31668,2.08728A2.49392,2.49392,0,0,1,33.09625,59.01521Zm-5.82713-3.021h1.88952c.89052,0,1.47615-.50148,1.47615-1.26028a1.29993,1.29993,0,0,0-1.46318-1.24587H27.26894Zm3.89815,2.96744a1.428,1.428,0,0,0-1.59653-1.39534H27.26948v2.777h2.27513a1.43417,1.43417,0,0,0,1.62157-1.382Z" fill="#010101"/><path d="M36.67563,51.9023h1.87618V61.92868H36.67563Z" fill="#010101"/><path d="M49.65845,53.48774h-3.0051v8.441H44.77753v-8.441H41.7836V51.90086h7.87485Z" fill="#010101"/><path d="M58.0411,59.937H53.5038l-.79754,1.99277h-2.009l4.20448-10.02638h1.74338l4.2034,10.02638H58.83882Zm-.62744-1.58688-1.63526-4.079-1.63707,4.079Z" fill="#010101"/><path d="M69.775,53.48774H66.76773v8.441H64.89191v-8.441H61.8987V51.90086H69.775Z" fill="#010101"/></svg>