<svg xmlns="http://www.w3.org/2000/svg" width="36" height="36" viewBox="0 0 36 36"><path d="M6.95117,24.79205l5.44177-2.83294a.35107.35107,0,0,1,.37348.03143,8.58559,8.58559,0,0,0,10.4671,0,.3506.3506,0,0,1,.37323-.03143l5.44214,2.83294a1.76031,1.76031,0,0,1,.79285.84388L31.65118,29.712a18,18,0,1,0-27.3023.00006l1.80945-4.07617A1.75947,1.75947,0,0,1,6.95117,24.79205ZM18,5.29041c3.83868,0,6.95056,1.90472,6.95056,8.13531,0,4.493-3.11206,8.13538-6.95056,8.13538-3.83875,0-6.9505-3.64234-6.95056-8.13538C11.04944,7.19513,14.16119,5.29041,18,5.29041Z" fill="#b0b0b1"/><path d="M18,21.5611c3.8385,0,6.95056-3.64234,6.95056-8.13538,0-6.23059-3.11188-8.13531-6.95056-8.13531s-6.95056,1.90472-6.95056,8.13531C11.0495,17.91876,14.16125,21.5611,18,21.5611Z" fill="#e5e5e5"/><path d="M31.65118,29.712l-1.80944-4.07611a1.76031,1.76031,0,0,0-.79285-.84388l-5.44214-2.83294a.3506.3506,0,0,0-.37323.03143,8.58559,8.58559,0,0,1-10.4671,0,.35107.35107,0,0,0-.37348-.03143L6.95117,24.79205a1.75947,1.75947,0,0,0-.79284.84388L4.34888,29.7121a17.96235,17.96235,0,0,0,27.3023-.00006Z" fill="#e5e5e5"/></svg>